<?xml version="1.0" encoding="utf-8"?>
<?xml-stylesheet type="text/xsl" href="rss1.xsl"?>
<rss version="2.0" xmlns:atom="http://www.w3.org/2005/Atom" xmlns:content="http://purl.org/rss/1.0/modules/content/" xmlns:dc="http://purl.org/dc/elements/1.1/" xmlns:media="http://search.yahoo.com/mrss/">
<channel>
 <title>Getty</title>
 <link>http://www.gettyimg.com/</link>
 <atom:link href="http://www.gettyimg.com/" rel="self" type="application/rss+xml" />

 
                <item>
                <title><![CDATA[【Requests】[REQ AUD] - Sarah Brightman - Eden [Qobuz CD 16bits/44.1kHz]]]></title>
                <link><![CDATA[https://sharemania.us/threads/sarah-brightman-eden-qobuz-cd-16bits-44-1khz.249281/]]></link>
                <description><![CDATA[<article>
<blockquote class="messageText SelectQuoteContainer ugc baseHtml">
Hello. I want to request this album. Thanks.<br>
<br>
<a href="https://www.qobuz.com/us-en/album/eden-sarah-brightman/aznxgs5kn2mpb" target="_blank" class="externalLink" rel="nofollow">https://www.qobuz.com/us-en/album/eden-sarah-brightman/aznxgs5kn2mpb</a>
<div class="messageTextEndMarker">&nbsp;</div>
</blockquote>
</article>]]></description>
                <author><![CDATA[mikemondinido]]></author>
                </item>

                
                <item>
                <title><![CDATA[【Albums (lossless)】FLAC - THE KILLERS - 2004 - Hot Fuss [Limited Edition 7-inch Box Set Vinyl Rip] [24bit-96kHz]]]></title>
                <link><![CDATA[https://sharemania.us/threads/the-killers-2004-hot-fuss-limited-edition-7-inch-box-set-vinyl-rip-24bit-96khz.249279/]]></link>
                <description><![CDATA[<article>
<blockquote class="messageText SelectQuoteContainer ugc baseHtml">
<div style="text-align: center"><img src="https://i.imgur.com/5MaKmZl.jpeg" class="bbCodeImage LbImage" alt="[​IMG]" data-url="https://i.imgur.com/5MaKmZl.jpeg" style=""> <br>
<br>
<b>Band</b>: The Kilers<br>
<b>Album</b>: Hot Fuss [Limited Edition 7-inch Box Set Vinyl Rip]<br>
<b>Date</b>: 22 November 2005<br>
<b>Genre</b>: Alternative Rock<br>
<b>Quality</b>: 24bit-96kHz<br>
Country: USA<br>
<b>Size</b>: 1,6GB<br>
<br>
<b>Tracklist</b>:<br>
<br>
A01 - Jenny Was A Friend Of Mine (4:03)<br>
A02 - Mr. Brightside (3:41)<br>
A03 - Smile Like You Mean It (3:55)<br>
A04 - Somebody Told Me (3:15)<br>
A05 - All These Things That I've Done (4:35)<br>
A06 - Andy, You're A Star (3:11)<br>
A07 - On Top (4:16)<br>
A08 - Change Your Mind (3:11)<br>
A09 - Believe Me Natalie (5:02)<br>
A10 - Midnight Show (4:00)<br>
A11 - Everything Will Be Alright (5:38)<br>
B01 - Somebody Told Me (Josh Harris Mix) (3:44)<br>
B02 - Under The Gun (2:31)<br>
B03 - Show You How (2:31)<br>
B04 - The Ballad Of Michael Valentine (3:48)<br>
B05 - Why Don't You Find Out For Yourself (3:19)<br>
B06 - Ruby Don't Take Your Love to Town (3:01)<br>
B07 - Mr. Brightside (Thin White Duke Remix) (4:31)<br>
B08 - Glamorous Indie Rock &amp; Roll (4:11)<br>
B09 - Smile Like You Mean It (Acoustic Version) (3:38)<br>
B10 - Who Let You Go (3:44)<br>
B11 - Get Trashed (3:34)<br>
<br>
<b><span style="font-size: 22px"><span style="color: #b30000">Send.cm</span></span></b>:<br>
<br>
<div class="bbCodeBlock bbCodeVfcHH HiddenContent">
<div class="attribution type">Hidden Content:</div>
<blockquote>You must either reply or click 'Like' to see the hidden information contained here.</blockquote>
</div></div>
<div class="messageTextEndMarker">&nbsp;</div>
</blockquote>
</article>]]></description>
                <author><![CDATA[XRB80]]></author>
                </item>

                
                <item>
                <title><![CDATA[【Music Videos】Depeche Mode - Personal Jesus (Violator Version) VJ-RoGeRs Video Edit (1080p 5.1) (Clean)]]></title>
                <link><![CDATA[https://sharemania.us/threads/depeche-mode-personal-jesus-violator-version-vj-rogers-video-edit-1080p-5-1-clean.249278/]]></link>
                <description><![CDATA[<article>
<blockquote class="messageText SelectQuoteContainer ugc baseHtml">
<img src="https://i.ibb.co/HpZXtH3/Depeche-Mode-Personal-Jesus-Violator-Version-VJ-Ro-Ge-Rs-Video-Edit-1080p-5-1-mp4-thumbs-2024-07-08.jpg" class="bbCodeImage LbImage" alt="[​IMG]" data-url="https://i.ibb.co/HpZXtH3/Depeche-Mode-Personal-Jesus-Violator-Version-VJ-Ro-Ge-Rs-Video-Edit-1080p-5-1-mp4-thumbs-2024-07-08.jpg" style=""> <br>
<br>
<div class="ToggleTriggerAnchor bbCodeSpoilerContainer">
<button type="button" class="button bbCodeSpoilerButton ToggleTrigger Tooltip JsOnly" data-target="> .SpoilerTarget"><span>Spoiler: <span class="SpoilerTitle">MediaInfo</span></span></button>
<div class="SpoilerTarget bbCodeSpoilerText">Depeche Mode - Personal Jesus (Violator Version) VJ-RoGeRs Video Edit (1080p 5.1).mp4<br>
Format : MPEG-4<br>
Format profile : Base Media / Version 2<br>
Codec ID : mp42 (mp42/mp41)<br>
File size : 434 MiB<br>
Duration : 4 min 55 s<br>
Overall bit rate mode : Variable<br>
Overall bit rate : 12.3 Mb/s<br>
Frame rate : 30.000 FPS<br>
Encoded date : 2024-07-08 19:43:43 UTC<br>
Tagged date : 2024-07-08 20:35:34 UTC<br>
TIM : 00:00:00:00<br>
TSC : 30<br>
TSZ : 1<br>
<br>
Video<br>
ID : 1<br>
Format : AVC<br>
Format/Info : Advanced Video Codec<br>
Format profile : Main@L4.1<br>
Format settings : CABAC / 4 Ref Frames<br>
Format settings, CABAC : Yes<br>
Format settings, Reference : 4 frames<br>
Format settings, GOP : M=4, N=30<br>
Codec ID : avc1<br>
Codec ID/Info : Advanced Video Coding<br>
Duration : 4 min 55 s<br>
Bit rate : 12.0 Mb/s<br>
Width : 1 920 pixels<br>
Height : 1 080 pixels<br>
Display aspect ratio : 16:9<br>
Frame rate mode : Constant<br>
Frame rate : 30.000 FPS<br>
Color space : YUV<br>
Chroma subsampling : 4:2:0<br>
Bit depth : 8 bits<br>
Scan type : Progressive<br>
Bits/(Pixel*Frame) : 0.193<br>
Stream size : 423 MiB (97%)<br>
Language : English<br>
Encoded date : 2024-07-08 19:43:52 UTC<br>
Tagged date : 2024-07-08 19:43:52 UTC<br>
Color range : Limited<br>
Color primaries : BT.709<br>
Transfer characteristics : BT.709<br>
Matrix coefficients : BT.709<br>
Codec configuration box : avcC<br>
<br>
Audio<br>
ID : 2<br>
Format : AAC LC<br>
Format/Info : Advanced Audio Codec Low Complexity<br>
Codec ID : mp4a-40-2<br>
Duration : 4 min 55 s<br>
Source duration : 4 min 55 s<br>
Bit rate mode : Variable<br>
Bit rate : 317 kb/s<br>
Maximum bit rate : 1 153 kb/s<br>
Channel(s) : 6 channels<br>
Channel layout : C L R Ls Rs LFE<br>
Sampling rate : 48.0 kHz<br>
Frame rate : 46.875 FPS (1024 SPF)<br>
Compression mode : Lossy<br>
Stream size : 11.2 MiB (3%)<br>
Source stream size : 11.2 MiB (3%)<br>
Language : English<br>
Encoded date : 2024-07-08 19:43:49 UTC<br>
Tagged date : 2024-07-08 19:43:49 UTC</div>
</div><br>
<div class="bbCodeBlock bbCodeVfcHH HiddenContent">
<div class="attribution type">Hidden Content:</div>
<blockquote>You must reply before you can see the hidden data contained here.</blockquote>
</div>
<div class="messageTextEndMarker">&nbsp;</div>
</blockquote>
</article>]]></description>
                <author><![CDATA[DJ-RoGeRs-BS]]></author>
                </item>

                
                <item>
                <title><![CDATA[【Requests】[REQ AUD] - Bob Dylan - TIDAL]]></title>
                <link><![CDATA[https://sharemania.us/threads/bob-dylan-tidal.249280/]]></link>
                <description><![CDATA[<article>
<blockquote class="messageText SelectQuoteContainer ugc baseHtml">
<img src="styles/default/xenforo/smilies/red_heart-48.png" class="mceSmilie" alt=":love:" title="hearts    :love:"><br>
<br>
<a href="https://tidal.com/browse/album/1268030" target="_blank" class="externalLink" rel="nofollow">https://tidal.com/browse/album/1268030</a>
<div class="messageTextEndMarker">&nbsp;</div>
</blockquote>
</article>]]></description>
                <author><![CDATA[Piperpilar]]></author>
                </item>

                </channel></rss>